<svg width="32" height="32" viewBox="0 0 32 32" xmlns="http://www.w3.org/2000/svg">
  <rect width="32" height="32" fill="#1a1a1a"/>
  <path d="M 16,8 C 14,8.5 12.5,9.5 11.5,11 C 10.5,12.5 10.5,14 11,15.5 C 11.5,17 12.5,18 14,18.5 L 14,20 C 12.5,19.5 11,18 10,16 C 9,14 9,11.5 10,9.5 C 11,7.5 13,6.5 15.5,6 Z M 16,8 C 18,8.5 19.5,9.5 20.5,11 C 21.5,12.5 21.5,14 21,15.5 C 20.5,17 19.5,18 18,18.5 L 18,20 C 19.5,19.5 21,18 22,16 C 23,14 23,11.5 22,9.5 C 21,7.5 19,6.5 16.5,6 Z" fill="#ff0000"/>
</svg>
